<?xml version="1.0" encoding="UTF-8"?>
<svg id="Layer_2" data-name="Layer 2" xmlns="http://www.w3.org/2000/svg" viewBox="0 0 394 498.33">
  <defs>
    <style>
      .cls-1 {
        fill: #603813;
        stroke: #603813;
        stroke-miterlimit: 10;
      }
    </style>
  </defs>
  <g id="Layer_1-2" data-name="Layer 1">
    <g>
      <path class="cls-1" d="m165.03,497.83c132.81-26.5,188.12-86.3,191.66-145.38,2.39-39.83-10.34-53-27.04-94.22-12.72-33.12-21.47-62.57-29.42-85.39-2.39-6.62-6.36-20.61-8.75-22.82-8.75-13.25-90.66-11.04-185.69-17.63,131.62,0,191.77-7.98,219.89-23.59,3.98-2.21,13.52-13.99-71.79-26.16,142.14,9.9,128.25,27.63,105.59,34.87-22.66,7.23-25.38,28.79-25.38,28.79-.6,8.41.49,17.84,3.11,28.38,8.41,33.82,11.73,45.37,46.92,125.13,34.48,78.14-23.4,198.8-219.09,198.01Z"/>
      <path class="cls-1" d="m262.45,411.19c-165.71,9.92-214.84-18.03-216.67-35.5,0,0-.44-152.23-.34-175.65.09-23.42-37.7-28.62-37.7-28.62l-.05-30.05h37.74s-1.03-19.01,0-55.95c.79-28.38-15.6-45.72-24.75-51.86-3.44-2.31-32.34-11.59-14.31-16.61C104.99-10.5,299.74,4.71,291.08,4.66,118.9,3.58,59.26,13.69,71.98,29.57c8.7,10.86,84.3,15.16,84.3,15.16-24.65,1.44-9.54,0-37.38,2.89-38.17,2.89-34.71,45.22-35.23,45.39,0,0-.16,253.19-.16,271.24,0,26.72,81.91,34.94,178.93,46.93Z"/>
    </g>
  </g>
</svg>